# xmcd
#
# Track frame offsets:
#  150
#  18890
#  32766
#  48983
#  73417
#  93540
#  115810
#  133389
#  153123
#
# Disc length: 2313 seconds
#
# Revision: 0
# Processed by: cddbd v1.4PL0 Copyright (c) Steve Scherf et al.
# Submitted via: AltoMP3_Maker 3.0
#
DISCID=77090709
DTITLE=Dixie Chicks - Live on NBC
DYEAR=1900
DGENRE=
TTITLE0=Ready To Run (live)
TTITLE1=If I Fall You're Going Down With Me
TTITLE2=Without You
TTITLE3=Give It Up Or Let Me GO
TTITLE4=Cowboy Take Me Home
TTITLE5=Cold Day In July
TTITLE6=Sin Wagon
TTITLE7=Goodbye Earl
TTITLE8=Wide Open Spaces
EXTD=
EXTT0=
EXTT1=
EXTT2=
EXTT3=
EXTT4=
EXTT5=
EXTT6=
EXTT7=
EXTT8=
PLAYORDER=
